<svg width="197" height="53" viewBox="0 0 197 53" fill="none" xmlns="http://www.w3.org/2000/svg">
<path fill-rule="evenodd" clip-rule="evenodd" d="M106.001 12.9043C105.597 13.2939 104.969 13.5491 104.115 13.5491C103.292 13.5491 102.663 13.3243 102.245 12.9043C101.751 12.4098 101.586 11.7954 101.586 10.6564H102.873C102.873 11.3608 102.948 11.7504 103.233 12.0501C103.483 12.2654 103.803 12.3824 104.133 12.3796C104.464 12.3768 104.782 12.2543 105.029 12.0347C105.313 11.72 105.373 11.3153 105.373 10.6111C105.373 9.38299 105.193 9.00779 104.325 8.64809L103.113 8.1536C102.02 7.70409 101.661 7.10459 101.661 5.48619C101.661 4.55708 101.93 3.79285 102.469 3.29836C102.933 2.88293 103.539 2.66292 104.161 2.68428C104.939 2.68428 105.523 2.90904 105.927 3.29836C106.466 3.82294 106.63 4.51225 106.63 5.48619H105.343C105.343 4.91678 105.283 4.52714 105.014 4.19738C104.907 4.07401 104.773 3.97728 104.622 3.91484C104.472 3.8524 104.308 3.82599 104.146 3.83769C103.993 3.83089 103.841 3.85677 103.699 3.9136C103.557 3.97044 103.428 4.05693 103.323 4.16729C103.068 4.45192 102.948 4.88668 102.948 5.44151C102.948 6.49051 103.113 6.80523 103.966 7.16477L105.164 7.65926C106.376 8.15375 106.661 8.90278 106.661 10.5814C106.661 11.6904 106.51 12.3947 106.001 12.9043Z" fill="#595959"/>
<path fill-rule="evenodd" clip-rule="evenodd" d="M112.41 12.8592C112.175 13.0892 111.896 13.2699 111.59 13.3908C111.284 13.5117 110.957 13.5704 110.629 13.5634C110.302 13.5704 109.978 13.5116 109.674 13.3907C109.371 13.2697 109.095 13.089 108.862 12.8592C108.428 12.4246 108.174 11.7952 108.174 11.0161V2.77417H109.461V11.091C109.461 11.9301 109.985 12.4096 110.629 12.4096C111.272 12.4096 111.811 11.93 111.811 11.091V2.77417H113.098V11.0161C113.098 11.7952 112.844 12.4246 112.41 12.8592Z" fill="#595959"/>
<path fill-rule="evenodd" clip-rule="evenodd" d="M117.319 8.99279H116.211V13.4433H114.924V2.77368H117.319C118.935 2.77368 119.849 3.52286 119.849 5.89014C119.849 8.22902 118.906 8.99279 117.319 8.99279ZM117.274 3.92784H116.211V7.83892H117.274C118.142 7.83892 118.561 7.31434 118.561 5.89091C118.561 4.45257 118.142 3.92815 117.274 3.92815V3.92784Z" fill="#595959"/>
<path fill-rule="evenodd" clip-rule="evenodd" d="M121.436 13.4436V2.77393H125.552V3.92778H122.723V7.50926H125.163V8.66312H122.723V12.2896H125.552V13.4434L121.436 13.4436Z" fill="#595959"/>
<path fill-rule="evenodd" clip-rule="evenodd" d="M131.028 13.4436L129.561 8.85809H128.409V13.4436H127.121V2.77393H129.531C131.147 2.77393 132.046 3.47812 132.046 5.81593C132.046 7.2994 131.686 8.16863 130.758 8.60309L132.39 13.4433L131.028 13.4436ZM129.546 3.92809H128.409V7.72004H129.547C130.535 7.72004 130.759 6.95582 130.759 5.81639C130.759 4.67696 130.534 3.92794 129.546 3.92794V3.92809Z" fill="#595959"/>
<path fill-rule="evenodd" clip-rule="evenodd" d="M133.932 13.4436V2.77393H135.219V13.4436H133.932Z" fill="#595959"/>
<path fill-rule="evenodd" clip-rule="evenodd" d="M141.191 13.4436L138.437 6.14585V13.4436H137.15V2.77393H138.348L141.072 10.0717V2.77408H142.36V13.4437L141.191 13.4436Z" fill="#595959"/>
<path fill-rule="evenodd" clip-rule="evenodd" d="M146.728 3.92803V13.4435H145.441V3.92803H143.645V2.77417H148.509V3.92803H146.728Z" fill="#595959"/>
<path fill-rule="evenodd" clip-rule="evenodd" d="M149.781 13.4436V2.77393H153.897V3.92778H151.069V7.50926H153.508V8.66312H151.069V12.2896H153.897V13.4434L149.781 13.4436Z" fill="#595959"/>
<path fill-rule="evenodd" clip-rule="evenodd" d="M159.512 13.4436L156.758 6.14585V13.4436H155.471V2.77393H156.668L159.393 10.0717V2.77408H160.68V13.4437L159.512 13.4436Z" fill="#595959"/>
<path fill-rule="evenodd" clip-rule="evenodd" d="M166.89 12.6944C166.501 13.129 165.932 13.4436 165.064 13.4436H162.609V2.77393H165.064C165.932 2.77393 166.501 3.08864 166.89 3.5231C167.579 4.25739 167.654 5.21643 167.654 8.1086C167.654 11.0008 167.579 11.9601 166.89 12.6944ZM165.932 4.33261C165.822 4.19933 165.681 4.09348 165.523 4.02331C165.365 3.95314 165.192 3.92055 165.019 3.92809H163.897V12.2897H165.019C165.192 12.2972 165.365 12.2647 165.523 12.1945C165.681 12.1243 165.822 12.0185 165.932 11.8852C166.336 11.3907 166.366 10.5665 166.366 8.1086C166.366 5.65074 166.336 4.82726 165.932 4.33277V4.33261Z" fill="#595959"/>
<path fill-rule="evenodd" clip-rule="evenodd" d="M169.314 13.4438V2.77416H173.431V3.92801H170.602V7.50949H173.042V8.66335H170.602V12.2898H173.431V13.4437L169.314 13.4438ZM172.323 2.02513L171.425 0.721439L170.527 2.02513H169.539L170.931 0.00219727H171.919L173.311 2.02513H172.323Z" fill="#595959"/>
<path fill-rule="evenodd" clip-rule="evenodd" d="M179.041 13.4436L176.287 6.14585V13.4436H175V2.77393H176.197L178.922 10.0717V2.77408H180.208V13.4437L179.041 13.4436Z" fill="#595959"/>
<path fill-rule="evenodd" clip-rule="evenodd" d="M186.135 12.9791C185.682 13.3787 185.093 13.588 184.489 13.5636C183.651 13.5636 183.067 13.2489 182.663 12.7843C181.96 11.9751 181.885 11.0611 181.885 8.10887C181.885 5.15668 181.96 4.24277 182.663 3.43356C183.067 2.96901 183.651 2.6543 184.489 2.6543C185.237 2.6543 185.762 2.87905 186.18 3.28373C186.674 3.76333 186.929 4.52724 186.944 5.39663H185.671C185.656 4.94712 185.581 4.49762 185.327 4.1829C185.226 4.05898 185.098 3.96049 184.952 3.89541C184.807 3.83034 184.648 3.8005 184.489 3.80831C184.32 3.79894 184.151 3.83088 183.997 3.90139C183.843 3.97189 183.709 4.07884 183.605 4.21299C183.231 4.72252 183.171 5.57655 183.171 8.10902C183.171 10.6415 183.231 11.4957 183.605 12.0052C183.709 12.1393 183.843 12.2462 183.997 12.3167C184.151 12.3872 184.32 12.4191 184.489 12.4097C184.648 12.4176 184.807 12.3877 184.952 12.3226C185.098 12.2576 185.226 12.1591 185.327 12.0352C185.566 11.7204 185.656 11.2559 185.671 10.807H186.944C186.929 11.7054 186.659 12.4995 186.135 12.9791Z" fill="#595959"/>
<path fill-rule="evenodd" clip-rule="evenodd" d="M188.471 13.4436V2.77393H189.758V13.4436H188.471Z" fill="#595959"/>
<path fill-rule="evenodd" clip-rule="evenodd" d="M195.64 13.4436L195.131 10.9258H192.661L192.153 13.4436H190.805L193.289 2.77393H194.531L197.001 13.4436H195.64ZM193.904 4.85704L192.901 9.77214H194.891L193.904 4.85704Z" fill="#595959"/>
<path fill-rule="evenodd" clip-rule="evenodd" d="M106.257 30.6756C105.868 31.1102 105.3 31.4248 104.431 31.4248H101.977V20.7551H104.431C105.3 20.7551 105.868 21.0698 106.257 21.5043C106.946 22.2386 107.021 23.1976 107.021 26.0898C107.021 28.982 106.946 29.9413 106.257 30.6756ZM105.3 22.3138C105.189 22.1805 105.049 22.0747 104.89 22.0045C104.732 21.9344 104.559 21.9018 104.386 21.9093H103.264V30.2705H104.386C104.559 30.278 104.732 30.2454 104.89 30.1752C105.049 30.1051 105.189 29.9992 105.3 29.8659C105.704 29.3715 105.733 28.5472 105.733 26.0893C105.733 23.6315 105.704 22.8083 105.3 22.3138H105.3Z" fill="#595959"/>
<path fill-rule="evenodd" clip-rule="evenodd" d="M108.682 31.4248V20.7551H112.798V21.909H109.969V25.4905H112.409V26.6443H109.969V30.2705H112.798V31.4243L108.682 31.4248Z" fill="#595959"/>
<path fill-rule="evenodd" clip-rule="evenodd" d="M119.609 21.9092V31.4247H118.321V21.9092H116.525V20.7554H121.39V21.9092H119.609Z" fill="#595959"/>
<path fill-rule="evenodd" clip-rule="evenodd" d="M122.662 31.4248V20.7551H126.778V21.909H123.949V25.4905H126.389V26.6443H123.949V30.2705H126.778V31.4243L122.662 31.4248Z" fill="#595959"/>
<path fill-rule="evenodd" clip-rule="evenodd" d="M132.344 30.9603C131.891 31.3599 131.302 31.5692 130.698 31.5448C129.86 31.5448 129.276 31.2301 128.872 30.7655C128.169 29.9563 128.094 29.0423 128.094 26.0901C128.094 23.1379 128.169 22.224 128.872 21.4148C129.276 20.9502 129.86 20.6355 130.698 20.6355C131.446 20.6355 131.971 20.8602 132.389 21.2649C132.883 21.7445 133.138 22.5084 133.153 23.3778H131.88C131.865 22.9283 131.79 22.4788 131.536 22.1641C131.435 22.0402 131.307 21.9417 131.161 21.8766C131.016 21.8115 130.857 21.7817 130.698 21.7895C130.529 21.7801 130.36 21.8121 130.206 21.8826C130.052 21.9531 129.918 22.06 129.814 22.1942C129.44 22.7037 129.38 23.5578 129.38 26.0902C129.38 28.6227 129.44 29.4769 129.814 29.9864C129.918 30.1205 130.052 30.2274 130.206 30.2979C130.36 30.3684 130.529 30.4003 130.698 30.3909C130.857 30.3988 131.016 30.3689 131.161 30.3038C131.307 30.2387 131.435 30.1403 131.536 30.0164C131.775 29.7016 131.865 29.2371 131.88 28.7882H133.153C133.138 29.6872 132.868 30.4809 132.344 30.9603Z" fill="#595959"/>
<path fill-rule="evenodd" clip-rule="evenodd" d="M138.723 31.4248L135.969 24.127V31.4248H134.682V20.7551H135.879L138.603 28.0529V20.7554H139.891V31.4251L138.723 31.4248Z" fill="#595959"/>
<path fill-rule="evenodd" clip-rule="evenodd" d="M145.995 30.7655C145.759 31.0119 145.475 31.2079 145.161 31.3418C144.848 31.4757 144.51 31.5447 144.169 31.5447C143.828 31.5447 143.49 31.4757 143.176 31.3418C142.862 31.2079 142.579 31.0119 142.343 30.7655C141.654 30.0013 141.564 29.0423 141.564 26.0901C141.564 23.1379 141.654 22.179 142.343 21.4148C142.579 21.1684 142.862 20.9724 143.176 20.8384C143.49 20.7045 143.828 20.6355 144.169 20.6355C144.51 20.6355 144.848 20.7045 145.161 20.8384C145.475 20.9724 145.759 21.1684 145.995 21.4148C146.683 22.179 146.773 23.138 146.773 26.0901C146.773 29.0421 146.683 30.0013 145.995 30.7655ZM145.037 22.194C144.937 22.0602 144.805 21.9532 144.654 21.8826C144.502 21.812 144.336 21.78 144.169 21.7894C144 21.78 143.831 21.8119 143.677 21.8824C143.523 21.9529 143.389 22.0599 143.286 22.194C142.912 22.7036 142.852 23.5576 142.852 26.0901C142.852 28.6225 142.912 29.4767 143.286 29.9863C143.389 30.1204 143.523 30.2273 143.677 30.2978C143.831 30.3682 144 30.4002 144.169 30.3908C144.336 30.4002 144.502 30.3682 144.654 30.2976C144.805 30.227 144.937 30.1201 145.037 29.9863C145.411 29.4767 145.486 28.6227 145.486 26.0901C145.486 23.5575 145.411 22.7036 145.037 22.194Z" fill="#595959"/>
<path fill-rule="evenodd" clip-rule="evenodd" d="M148.434 31.4248V20.7551H149.721V30.2705H152.55V31.4243L148.434 31.4248Z" fill="#595959"/>
<path fill-rule="evenodd" clip-rule="evenodd" d="M157.714 30.7655C157.477 31.0119 157.194 31.2079 156.88 31.3418C156.566 31.4757 156.229 31.5447 155.888 31.5447C155.546 31.5447 155.209 31.4757 154.895 31.3418C154.581 31.2079 154.298 31.0119 154.061 30.7655C153.373 30.0013 153.283 29.0423 153.283 26.0901C153.283 23.1379 153.373 22.179 154.061 21.4148C154.298 21.1684 154.581 20.9724 154.895 20.8384C155.209 20.7045 155.546 20.6355 155.888 20.6355C156.229 20.6355 156.566 20.7045 156.88 20.8384C157.194 20.9724 157.477 21.1684 157.714 21.4148C158.402 22.179 158.492 23.138 158.492 26.0901C158.492 29.0421 158.403 30.0013 157.714 30.7655ZM156.756 22.194C156.656 22.0602 156.524 21.9532 156.372 21.8826C156.221 21.812 156.054 21.78 155.888 21.7894C155.719 21.78 155.55 21.8119 155.396 21.8824C155.242 21.9529 155.108 22.0599 155.004 22.194C154.63 22.7036 154.57 23.5576 154.57 26.0901C154.57 28.6225 154.63 29.4767 155.004 29.9863C155.108 30.1204 155.242 30.2273 155.396 30.2978C155.55 30.3682 155.719 30.4002 155.888 30.3908C156.054 30.4002 156.221 30.3682 156.372 30.2976C156.524 30.227 156.656 30.1201 156.756 29.9863C157.13 29.4767 157.205 28.6227 157.205 26.0901C157.205 23.5575 157.13 22.7036 156.756 22.194Z" fill="#595959"/>
<path fill-rule="evenodd" clip-rule="evenodd" d="M162.579 31.5449C162.236 31.5565 161.895 31.4928 161.58 31.3581C161.264 31.2235 160.982 31.0212 160.753 30.7656C160.064 30.0014 159.975 29.0423 159.975 26.0901C159.975 23.1379 160.064 22.1791 160.753 21.4148C161.213 20.9382 161.84 20.6593 162.502 20.637C163.164 20.6146 163.809 20.8505 164.3 21.2949C164.794 21.7894 165.019 22.5384 165.034 23.3929H163.761C163.746 22.6737 163.566 21.7896 162.579 21.7896C162.41 21.7802 162.241 21.8122 162.087 21.8827C161.933 21.9532 161.799 22.0601 161.695 22.1942C161.321 22.7038 161.261 23.5578 161.261 26.0903C161.261 28.6228 161.321 29.477 161.695 29.9865C161.799 30.1206 161.933 30.2275 162.087 30.298C162.241 30.3685 162.41 30.4004 162.579 30.391C163.327 30.391 163.761 29.7769 163.761 28.9075V26.7646H162.579V25.7007H165.048V28.8632C165.034 30.6459 163.971 31.5449 162.579 31.5449Z" fill="#595959"/>
<path fill-rule="evenodd" clip-rule="evenodd" d="M166.725 31.4248V20.7551H168.012V31.4248H166.725Z" fill="#595959"/>
<path fill-rule="evenodd" clip-rule="evenodd" d="M173.893 31.4248L173.384 28.907H170.915L170.406 31.4248H169.059L171.543 20.7551H172.785L175.255 31.4248H173.893ZM172.157 22.8383L171.154 27.7534H173.145L172.157 22.8383Z" fill="#595959"/>
<path fill-rule="evenodd" clip-rule="evenodd" d="M183.369 30.6756C182.98 31.1102 182.411 31.4248 181.543 31.4248H179.088V20.7551H181.543C182.411 20.7551 182.98 21.0698 183.369 21.5043C184.057 22.2386 184.132 23.1976 184.132 26.0898C184.132 28.982 184.057 29.9413 183.369 30.6756ZM182.411 22.3138C182.3 22.1805 182.16 22.0747 182.002 22.0045C181.843 21.9344 181.671 21.9018 181.498 21.9093H180.375V30.2705H181.498C181.671 30.278 181.843 30.2454 182.002 30.1752C182.16 30.1051 182.3 29.9992 182.411 29.8659C182.815 29.3715 182.845 28.5472 182.845 26.0893C182.845 23.6315 182.814 22.8083 182.41 22.3138H182.411Z" fill="#595959"/>
<path fill-rule="evenodd" clip-rule="evenodd" d="M189.667 31.4248L189.158 28.907H186.688L186.179 31.4248H184.832L187.316 20.7551H188.558L191.028 31.4248H189.667ZM187.93 22.8383L186.927 27.7534H188.918L187.93 22.8383Z" fill="#595959"/>
<path fill-rule="evenodd" clip-rule="evenodd" d="M101.977 49.406V38.7363H103.264V49.406H101.977Z" fill="#595959"/>
<path fill-rule="evenodd" clip-rule="evenodd" d="M109.237 49.406L106.483 42.1082V49.406H105.195V38.7363H106.393L109.117 46.0341V38.7366H110.404V49.4063L109.237 49.406Z" fill="#595959"/>
<path fill-rule="evenodd" clip-rule="evenodd" d="M113.621 39.8908V43.4723H116.061V44.6262H113.621V49.4065H112.334V38.7368H116.45V39.8907L113.621 39.8908Z" fill="#595959"/>
<path fill-rule="evenodd" clip-rule="evenodd" d="M122.048 48.7467C121.811 48.9931 121.528 49.1891 121.214 49.323C120.9 49.4569 120.563 49.5259 120.222 49.5259C119.88 49.5259 119.543 49.4569 119.229 49.323C118.915 49.1891 118.632 48.9931 118.395 48.7467C117.707 47.9825 117.617 47.0235 117.617 44.0713C117.617 41.1191 117.707 40.1602 118.395 39.396C118.632 39.1496 118.915 38.9536 119.229 38.8196C119.543 38.6857 119.88 38.6167 120.222 38.6167C120.563 38.6167 120.9 38.6857 121.214 38.8196C121.528 38.9536 121.811 39.1496 122.048 39.396C122.736 40.1602 122.826 41.1192 122.826 44.0713C122.826 47.0233 122.736 47.9825 122.048 48.7467ZM121.09 40.1752C120.99 40.0414 120.858 39.9344 120.706 39.8638C120.555 39.7932 120.388 39.7611 120.222 39.7705C120.053 39.7612 119.884 39.7931 119.73 39.8636C119.576 39.9341 119.442 40.0411 119.338 40.1752C118.964 40.6848 118.904 41.5388 118.904 44.0713C118.904 46.6037 118.964 47.4579 119.338 47.9675C119.442 48.1016 119.576 48.2085 119.73 48.279C119.884 48.3494 120.053 48.3814 120.222 48.372C120.388 48.3814 120.555 48.3494 120.706 48.2788C120.858 48.2082 120.989 48.1013 121.09 47.9675C121.464 47.4579 121.539 46.6039 121.539 44.0713C121.539 41.5387 121.464 40.6848 121.09 40.1752Z" fill="#595959"/>
<path fill-rule="evenodd" clip-rule="evenodd" d="M128.393 49.406L126.926 44.8205H125.774V49.406H124.486V38.7363H126.896C128.513 38.7363 129.411 39.4405 129.411 41.7783C129.411 43.2618 129.052 44.131 128.124 44.5655L129.755 49.4057L128.393 49.406ZM126.911 39.8905H125.774V43.6824H126.911C127.899 43.6824 128.124 42.9182 128.124 41.7788C128.124 40.6394 127.899 39.8905 126.911 39.8905H126.911Z" fill="#595959"/>
<path fill-rule="evenodd" clip-rule="evenodd" d="M136.73 49.4062V41.8088L135.039 46.7982H134.246L132.584 41.9281V49.4057H131.297V38.7361H132.509L134.665 44.6709L136.806 38.7367H138.018V49.4064L136.73 49.4062Z" fill="#595959"/>
<path fill-rule="evenodd" clip-rule="evenodd" d="M143.899 49.406L143.39 46.8882H140.92L140.412 49.406H139.064L141.549 38.7363H142.791L145.26 49.406H143.899ZM142.163 40.8195L141.16 45.7346H143.15L142.163 40.8195Z" fill="#595959"/>
<path fill-rule="evenodd" clip-rule="evenodd" d="M150.366 48.9415C149.913 49.3411 149.323 49.5504 148.72 49.526C147.881 49.526 147.298 49.2113 146.893 48.7467C146.19 47.9375 146.115 47.0235 146.115 44.0713C146.115 41.1191 146.19 40.2052 146.893 39.396C147.298 38.9314 147.881 38.6167 148.72 38.6167C149.468 38.6167 149.992 38.8415 150.411 39.2461C150.905 39.7257 151.159 40.4896 151.174 41.359H149.902C149.886 40.9095 149.812 40.46 149.557 40.1453C149.457 40.0214 149.329 39.9229 149.183 39.8578C149.037 39.7927 148.878 39.7629 148.719 39.7707C148.55 39.7613 148.382 39.7933 148.228 39.8638C148.074 39.9343 147.939 40.0412 147.836 40.1754C147.462 40.6849 147.402 41.5389 147.402 44.0714C147.402 46.6039 147.462 47.4581 147.836 47.9676C147.939 48.1017 148.074 48.2086 148.228 48.2791C148.382 48.3496 148.55 48.3815 148.719 48.3721C148.878 48.3799 149.037 48.3501 149.183 48.285C149.329 48.2199 149.457 48.1215 149.557 47.9976C149.797 47.6828 149.887 47.2183 149.902 46.7694H151.174C151.159 47.6678 150.89 48.4627 150.366 48.9415ZM148.42 52.1334H147.462L148.315 49.9755H149.168L148.42 52.1334Z" fill="#595959"/>
<path fill-rule="evenodd" clip-rule="evenodd" d="M156.727 49.4063L156.218 46.8885H153.749L153.24 49.4063H151.893L154.377 38.7366H155.619L158.088 49.4063H156.727ZM155.814 37.8377C155.036 37.8377 154.811 37.3582 154.302 37.3582C154.018 37.3582 153.823 37.523 153.629 37.7028L153.09 37.1484C153.509 36.7138 153.838 36.5037 154.272 36.5037C155.066 36.5037 155.2 36.9981 155.784 36.9981C156.083 36.9981 156.263 36.8333 156.443 36.6535L157.011 37.2079C156.682 37.5381 156.308 37.8377 155.814 37.8377ZM154.991 40.8199L153.988 45.735H155.979L154.991 40.8199Z" fill="#595959"/>
<path fill-rule="evenodd" clip-rule="evenodd" d="M163.37 48.7467C163.134 48.9931 162.85 49.1891 162.536 49.323C162.223 49.4569 161.885 49.5259 161.544 49.5259C161.203 49.5259 160.865 49.4569 160.551 49.323C160.237 49.1891 159.954 48.9931 159.718 48.7467C159.029 47.9825 158.939 47.0235 158.939 44.0713C158.939 41.1191 159.029 40.1602 159.718 39.396C159.954 39.1496 160.237 38.9536 160.551 38.8196C160.865 38.6857 161.203 38.6167 161.544 38.6167C161.885 38.6167 162.223 38.6857 162.536 38.8196C162.85 38.9536 163.134 39.1496 163.37 39.396C164.058 40.1602 164.148 41.1192 164.148 44.0713C164.148 47.0233 164.058 47.9825 163.37 48.7467ZM162.412 40.1752C162.312 40.0414 162.18 39.9344 162.029 39.8638C161.877 39.7932 161.711 39.7611 161.544 39.7705C161.375 39.7612 161.206 39.7931 161.052 39.8636C160.898 39.9341 160.764 40.0411 160.661 40.1752C160.287 40.6848 160.227 41.5388 160.227 44.0713C160.227 46.6037 160.287 47.4579 160.661 47.9675C160.764 48.1016 160.898 48.2085 161.052 48.279C161.206 48.3494 161.375 48.3814 161.544 48.372C161.711 48.3814 161.877 48.3494 162.029 48.2788C162.18 48.2082 162.312 48.1013 162.412 47.9675C162.786 47.4579 162.861 46.6039 162.861 44.0713C162.861 41.5387 162.786 40.6848 162.412 40.1752H162.412Z" fill="#595959"/>
<path d="M46.9883 36.0816C46.9203 34.7561 46.6891 33.4441 46.2999 32.1753C44.6993 27.0884 40.4437 23.0297 35.2718 21.7197C33.4765 21.2649 31.6885 21.2252 29.8715 21.2252L16.3237 21.2302C15.9963 21.2354 15.6691 21.2163 15.3446 21.1731C13.114 20.8391 11.2085 19.2629 10.687 17.0147C10.3998 15.7634 10.5542 14.4512 11.1239 13.3009C11.6937 12.1507 12.6437 11.2335 13.8125 10.7051C14.685 10.322 15.8339 10.2687 16.9449 10.2687L44.7958 10.2767L43.6343 8.50159L16.9449 8.49359C15.6414 8.49359 14.2731 8.56452 13.0838 9.08664C11.5415 9.78478 10.2881 10.9958 9.53636 12.514C8.78462 14.0323 8.58089 15.7642 8.95975 17.4157C9.63063 20.3079 12.0338 22.4716 15.082 22.9282C15.4936 22.9847 15.9088 23.0104 16.3241 23.0049L29.872 22.9999C31.5727 22.9999 33.2322 23.0335 34.8374 23.4402C39.3625 24.5864 43.1982 28.2242 44.6091 32.7082C44.9553 33.838 45.1601 35.0065 45.2187 36.1868L45.2211 36.2269L45.2253 36.2668C45.3827 37.765 45.1504 39.5326 44.5714 41.2442C44.0427 42.8446 43.233 44.3376 42.1803 45.6532C40.0763 48.2489 37.0523 50.0899 34.0911 50.5787C32.3276 50.8695 30.5741 50.8695 28.7168 50.8695H3.60188L7.98309 44.1725C7.98309 44.1725 31.2455 44.1771 31.5891 44.1752H31.6294L31.6696 44.1732C32.8232 44.1161 33.9466 43.785 34.9471 43.2072C35.9476 42.6295 36.7964 41.8217 37.4234 40.8506C38.0503 39.8795 38.4375 38.773 38.5528 37.6224C38.6681 36.4719 38.5083 35.3104 38.0866 34.234C37.5597 32.8931 36.6452 31.7401 35.46 30.9225C34.2749 30.1049 32.8731 29.6598 31.4339 29.6442C29.9121 29.639 16.0297 29.637 15.8026 29.6356C15.0644 29.6149 14.656 29.6032 14.3957 29.576C11.2513 29.2473 6.94801 27.423 4.30021 23.2889C3.09451 21.391 2.36044 19.2315 2.15941 16.9913C1.95838 14.7511 2.29626 12.4952 3.14477 10.4125C3.98437 8.35023 5.32034 6.52778 7.03373 5.10749C8.77517 3.65968 10.8339 2.64472 13.0419 2.14547C14.6093 1.77564 16.2775 1.77564 17.8895 1.77564H39.2338L38.0724 0.000488281H17.8895C16.1188 0.000488281 14.3766 0.00679503 12.6353 0.417605C10.1625 0.982488 7.8567 2.12061 5.90343 3.74039C3.96512 5.34901 2.45341 7.41178 1.50244 9.74565C0.552017 12.0925 0.174722 14.6325 0.401901 17.1546C0.62908 19.6768 1.45417 22.1083 2.80863 24.247C5.63308 28.6569 10.2702 30.9294 14.2126 31.3415C14.5419 31.3759 14.9518 31.3961 15.7716 31.4192C16.1031 31.423 30.2843 31.4192 31.429 31.4192C32.5131 31.4369 33.5677 31.776 34.4594 32.3935C35.3511 33.0111 36.04 33.8794 36.4389 34.8887C36.7564 35.7029 36.876 36.5811 36.7877 37.4506C36.6994 38.3202 36.4059 39.1563 35.9313 39.8899C35.4567 40.6235 34.8146 41.2336 34.058 41.6698C33.3015 42.106 32.4522 42.3559 31.5802 42.3988C31.237 42.4004 7.02515 42.3956 7.02515 42.3956L0.320312 52.6443H28.7168C30.6316 52.6443 32.4817 52.6429 34.3794 52.3299C37.9512 51.7407 41.2997 49.5565 43.5572 46.7712C44.7414 45.2918 45.6534 43.6133 46.2505 41.8142C46.8547 40.0283 47.1864 37.9665 46.9883 36.0816V36.0816Z" fill="#872367"/>
<path d="M85.8319 18.7629V50.8685H79.1504V18.7629H85.8319ZM87.605 16.9877H77.377V52.6446L87.605 52.6435V16.9875V16.9877Z" fill="#F7941D"/>
<path d="M87.6028 0L77.375 0.000918273V1.77608L85.8298 1.77531L85.8306 8.50257H77.375V10.2779L87.6038 10.2777L87.6028 0Z" fill="#F7941D"/>
<path d="M77.3752 1.77613V0.000976562H38.0723L39.2337 1.77613H77.3752Z" fill="#B30638"/>
<path d="M65.5463 8.50269V50.8695H58.8625L58.8634 8.50376L43.6348 8.50284L44.7962 10.278L57.0901 10.2771L57.0894 52.6447H67.3194V10.278L77.3756 10.2781V8.50284L65.5463 8.50269Z" fill="#B30638"/>
</svg>
